<svg data-v-fde0c5aa="" xmlns="http://www.w3.org/2000/svg" viewBox="0 0 300 300" class="iconAbove"><!----><defs data-v-fde0c5aa=""><linearGradient data-v-fde0c5aa="" gradientTransform="rotate(25)" id="9341f06c-aafb-4883-9fe7-b477a2680601" x1="0%" y1="0%" x2="50%" y2="0%"><stop data-v-fde0c5aa="" offset="0%" stop-color="#ffffff00" stop-opacity="1"></stop><stop data-v-fde0c5aa="" offset="100%" stop-color="#ffffff00" stop-opacity="1"></stop></linearGradient></defs><rect data-v-fde0c5aa="" fill="url(#9341f06c-aafb-4883-9fe7-b477a2680601)" x="0" y="0" width="0px" height="0px" class="logo-background-square"></rect><defs data-v-fde0c5aa=""><!----></defs><g data-v-fde0c5aa="" id="6b52fa6c-9c61-4dc3-840d-3f8fe897de25" fill="#2f00bd" transform="matrix(2.7333893239331584,0,0,2.7333893239331584,19.80866272614473,169.52354928815714)"><path d="M9.74 13.64L9.74 13.64Q9.31 13.80 8.81 13.80Q8.30 13.80 8.02 13.62Q7.74 13.44 7.56 13.08L7.56 13.08Q7.29 12.54 6.96 11.26Q6.62 9.98 6.43 8.46L6.43 8.46Q5.25 12.19 5.08 13.55L5.08 13.55Q4.47 13.72 3.98 13.72L3.98 13.72Q3.18 13.72 2.80 13.14Q2.42 12.56 2.25 11.62L2.25 11.62Q2.25 11.59 2.04 10.44Q1.83 9.30 1.74 8.85L1.74 8.85Q1.41 7.21 1.07 6.10Q0.73 5.00 0.07 4.59L0.07 4.59Q0.24 4.17 0.59 3.93Q0.94 3.70 1.37 3.70L1.37 3.70Q2.34 3.70 2.76 5.15L2.76 5.15Q3.05 6.17 3.46 8.62Q3.86 11.06 4.06 12.11L4.06 12.11Q5.64 7.69 5.64 6.26L5.64 6.26Q5.64 5.96 5.57 5.85L5.57 5.85Q5.87 5.52 6.41 5.52Q6.94 5.52 7.25 5.81Q7.55 6.10 7.73 6.76Q7.91 7.41 8.24 9.30Q8.57 11.19 8.75 12.11L8.75 12.11Q9.31 10.35 9.64 9.27Q9.97 8.19 10.33 6.55Q10.68 4.91 10.68 3.91L10.68 3.91Q10.68 3.72 10.67 3.64L10.67 3.64Q10.85 3.61 11.28 3.61Q11.72 3.61 12.05 3.89Q12.38 4.16 12.38 4.76Q12.38 5.36 11.94 6.78Q11.49 8.19 10.80 10.21Q10.11 12.24 9.74 13.64ZM13.87 10.46L13.87 10.46Q13.87 11.47 14.20 12.05Q14.52 12.63 15.27 12.63Q16.03 12.63 16.46 12.12Q16.88 11.61 16.88 10.88L16.88 10.88Q17.36 10.88 17.71 11.12Q18.06 11.35 18.06 11.77L18.06 11.77Q18.06 12.64 17.14 13.22Q16.21 13.80 15.19 13.80L15.19 13.80Q13.59 13.80 12.88 12.94Q12.17 12.08 12.17 10.39Q12.17 8.69 13.13 7.54Q14.08 6.38 15.68 6.38L15.68 6.38Q16.77 6.38 17.44 6.88Q18.10 7.38 18.10 8.42Q18.10 9.46 17.16 9.99Q16.21 10.51 14.85 10.51L14.85 10.51Q14.38 10.51 13.87 10.46ZM13.89 9.35L13.89 9.35Q14.31 9.44 14.77 9.44L14.77 9.44Q15.78 9.44 16.46 9.06L16.46 9.06Q16.55 8.72 16.55 8.53L16.55 8.53Q16.55 8.04 16.20 7.78Q15.85 7.53 15.24 7.53Q14.63 7.53 14.14 7.92L14.14 7.92Q13.89 8.65 13.89 9.35ZM25.82 7.04L25.82 7.04Q25.44 8.65 25.44 10.27Q25.44 11.89 25.80 13.47L25.80 13.47Q25.30 13.64 24.77 13.64Q24.23 13.64 24.02 13.32Q23.81 13.01 23.81 12.41Q23.81 11.82 24.00 10.78L24.00 10.78Q23.00 12.91 22.08 13.47L22.08 13.47Q21.66 13.72 21.21 13.72L21.21 13.72Q20.15 13.72 19.56 12.93Q18.97 12.14 18.97 10.96L18.97 10.96Q18.97 9.17 19.96 7.82Q20.96 6.47 22.55 6.47Q24.14 6.47 25.82 7.04ZM23.98 7.88L23.98 7.88Q23.24 7.66 22.72 7.66L22.72 7.66Q21.67 7.66 21.15 8.12L21.15 8.12Q20.68 9.30 20.68 10.51L20.68 10.51Q20.68 11.16 20.88 11.82Q21.08 12.47 21.50 12.47L21.50 12.47Q21.99 12.47 22.76 11.03Q23.53 9.59 23.98 7.88ZM27.59 4.49L27.59 4.49Q28.04 4.27 28.50 4.27Q28.97 4.27 29.25 4.56Q29.54 4.86 29.54 5.43Q29.54 6.01 29.47 6.73L29.47 6.73Q30.52 6.73 31.47 6.44L31.47 6.44Q31.64 6.72 31.64 7.09Q31.64 7.46 31.31 7.69Q30.98 7.92 30.65 7.92Q30.31 7.92 29.89 7.84Q29.47 7.76 29.34 7.74L29.34 7.74Q29.33 7.87 29.27 8.25Q29.20 8.62 29.16 8.90L29.16 8.90Q29.05 9.67 29.05 10.56L29.05 10.56Q29.05 12.47 30.30 12.47L30.30 12.47Q30.76 12.47 31.36 12.15L31.36 12.15Q31.54 12.42 31.54 12.84Q31.54 13.26 31.09 13.49Q30.63 13.72 30.00 13.72L30.00 13.72Q27.54 13.72 27.54 10.92L27.54 10.92Q27.54 10.51 27.66 9.45Q27.78 8.39 27.78 7.73L27.78 7.73Q27.10 7.77 26.70 7.97L26.70 7.97Q26.53 7.71 26.53 7.39Q26.53 7.06 26.77 6.84Q27.01 6.62 27.36 6.62Q27.71 6.62 27.82 6.64L27.82 6.64Q27.83 6.52 27.83 6.34L27.83 6.34Q27.83 5.29 27.59 4.49ZM39.05 7.98L39.05 7.98L38.91 11.06Q38.91 12.29 39.31 13.55L39.31 13.55Q38.88 13.72 38.43 13.72L38.43 13.72Q37.21 13.72 37.21 12.43L37.21 12.43Q37.21 11.48 37.38 10.19Q37.55 8.90 37.55 8.61L37.55 8.61Q37.55 7.88 36.89 7.88L36.89 7.88Q36.19 7.88 35.34 9.19Q34.48 10.50 34.36 11.38L34.36 11.38Q34.38 11.79 34.64 13.47L34.64 13.47Q34.20 13.64 33.68 13.64L33.68 13.64Q32.61 13.64 32.61 12.59L32.61 12.59Q32.61 12.08 32.76 10.61Q32.91 9.13 32.91 8.23L32.91 8.23Q32.91 5.25 32.58 3.30L32.58 3.30Q33.03 3.14 33.50 3.14Q33.98 3.14 34.29 3.45Q34.61 3.77 34.61 4.31Q34.61 4.86 34.46 6.57Q34.31 8.27 34.31 9.23L34.31 9.23Q34.80 8.19 35.75 7.33Q36.69 6.47 37.63 6.47L37.63 6.47Q39.05 6.47 39.05 7.98ZM42 10.46L42 10.46Q42 11.47 42.32 12.05Q42.64 12.63 43.40 12.63Q44.16 12.63 44.58 12.12Q45.01 11.61 45.01 10.88L45.01 10.88Q45.49 10.88 45.84 11.12Q46.19 11.35 46.19 11.77L46.19 11.77Q46.19 12.64 45.26 13.22Q44.34 13.80 43.32 13.80L43.32 13.80Q41.72 13.80 41.01 12.94Q40.29 12.08 40.29 10.39Q40.29 8.69 41.25 7.54Q42.21 6.38 43.81 6.38L43.81 6.38Q44.90 6.38 45.56 6.88Q46.23 7.38 46.23 8.42Q46.23 9.46 45.28 9.99Q44.34 10.51 42.98 10.51L42.98 10.51Q42.50 10.51 42 10.46ZM42.01 9.35L42.01 9.35Q42.43 9.44 42.90 9.44L42.90 9.44Q43.90 9.44 44.59 9.06L44.59 9.06Q44.67 8.72 44.67 8.53L44.67 8.53Q44.67 8.04 44.32 7.78Q43.97 7.53 43.37 7.53Q42.76 7.53 42.27 7.92L42.27 7.92Q42.01 8.65 42.01 9.35ZM49.60 13.47Q49.17 13.64 48.68 13.64Q48.19 13.64 47.89 13.41Q47.59 13.17 47.59 12.76Q47.59 12.35 47.71 11.26Q47.84 10.16 47.84 9.14Q47.84 8.11 47.52 6.72L47.52 6.72Q47.96 6.55 48.40 6.55Q48.83 6.55 49.15 6.85Q49.46 7.14 49.46 7.63L49.46 7.63Q49.46 7.88 49.38 8.38Q49.29 8.88 49.28 9.13L49.28 9.13Q49.83 7.88 50.58 7.18Q51.32 6.47 52.07 6.47L52.07 6.47Q52.58 6.47 52.89 6.83Q53.20 7.20 53.20 7.75Q53.20 8.30 52.92 8.64Q52.64 8.99 52.23 8.99Q51.81 8.99 51.56 8.90L51.56 8.90Q51.60 8.74 51.60 8.60L51.60 8.60Q51.60 8.02 51.20 8.02L51.20 8.02Q50.58 8.02 50.04 9.26Q49.50 10.50 49.32 11.58L49.32 11.58Q49.39 12.63 49.60 13.47L49.60 13.47ZM55.19 11.09L55.19 11.09Q55.15 11.28 55.15 11.41L55.15 11.41Q55.15 11.98 55.49 12.29Q55.83 12.60 56.41 12.60Q56.99 12.60 57.38 12.38Q57.76 12.17 57.76 11.73Q57.76 11.30 57.35 11.04Q56.94 10.78 56.36 10.63Q55.78 10.47 55.19 10.28Q54.60 10.09 54.19 9.69Q53.77 9.28 53.77 8.67L53.77 8.67Q53.77 7.70 54.80 7.04Q55.82 6.38 56.94 6.38L56.94 6.38Q58.17 6.38 58.81 6.89L58.81 6.89Q59.19 7.18 59.19 7.67Q59.19 8.15 58.82 8.45Q58.45 8.75 57.92 8.75L57.92 8.75Q57.81 8.75 57.64 8.72L57.64 8.72Q57.68 8.54 57.68 8.40L57.68 8.40Q57.68 7.99 57.37 7.78Q57.06 7.57 56.54 7.57Q56.01 7.57 55.58 7.78L55.58 7.78Q55.41 8.01 55.41 8.36Q55.41 8.71 55.82 8.93Q56.22 9.14 56.81 9.30Q57.39 9.46 57.97 9.67Q58.56 9.87 58.97 10.30Q59.37 10.72 59.37 11.37L59.37 11.37Q59.37 12.42 58.33 13.11Q57.29 13.80 56.18 13.80Q55.08 13.80 54.36 13.41Q53.63 13.01 53.63 12.19L53.63 12.19Q53.63 11.69 54.01 11.38Q54.38 11.06 54.91 11.06L54.91 11.06Q55.02 11.06 55.19 11.09ZM62.12 12.26L62.12 12.26Q62.69 12.47 63.45 12.47Q64.20 12.47 64.78 12.18L64.78 12.18Q65.46 11.00 65.46 9.36Q65.46 7.71 64.89 7.71L64.89 7.71Q64.18 7.71 63.29 9.16Q62.40 10.60 62.12 12.26ZM62.12 9.39L62.12 9.39Q63.60 6.47 65.41 6.47L65.41 6.47Q66.36 6.47 66.77 7.25Q67.19 8.02 67.19 9.21L67.19 9.21Q67.19 10.92 66.18 12.32Q65.17 13.72 63.64 13.72L63.64 13.72Q62.78 13.72 62.06 13.44L62.06 13.44Q62.09 15.36 62.30 16.95L62.30 16.95Q61.85 17.12 61.38 17.12Q60.90 17.12 60.59 16.81Q60.28 16.49 60.28 15.85Q60.28 15.20 60.45 13.65Q60.62 12.10 60.62 11.21L60.62 11.21Q60.62 8.30 60.31 6.72L60.31 6.72Q60.76 6.55 61.26 6.55Q61.75 6.55 62.03 6.84Q62.30 7.13 62.30 7.74Q62.30 8.34 62.12 9.39ZM74.80 7.98L74.80 7.98L74.66 11.06Q74.66 12.29 75.07 13.55L75.07 13.55Q74.63 13.72 74.19 13.72L74.19 13.72Q72.97 13.72 72.97 12.43L72.97 12.43Q72.97 11.48 73.14 10.19Q73.30 8.90 73.30 8.61L73.30 8.61Q73.30 7.88 72.65 7.88L72.65 7.88Q71.95 7.88 71.09 9.19Q70.24 10.50 70.11 11.38L70.11 11.38Q70.14 11.79 70.39 13.47L70.39 13.47Q69.96 13.64 69.44 13.64L69.44 13.64Q68.36 13.64 68.36 12.59L68.36 12.59Q68.36 12.08 68.52 10.61Q68.67 9.13 68.67 8.23L68.67 8.23Q68.67 5.25 68.33 3.30L68.33 3.30Q68.78 3.14 69.26 3.14Q69.73 3.14 70.05 3.45Q70.36 3.77 70.36 4.31Q70.36 4.86 70.22 6.57Q70.07 8.27 70.07 9.23L70.07 9.23Q70.56 8.19 71.51 7.33Q72.45 6.47 73.39 6.47L73.39 6.47Q74.80 6.47 74.80 7.98ZM77.76 10.46L77.76 10.46Q77.76 11.47 78.08 12.05Q78.40 12.63 79.16 12.63Q79.91 12.63 80.34 12.12Q80.77 11.61 80.77 10.88L80.77 10.88Q81.24 10.88 81.59 11.12Q81.94 11.35 81.94 11.77L81.94 11.77Q81.94 12.64 81.02 13.22Q80.09 13.80 79.07 13.80L79.07 13.80Q77.48 13.80 76.76 12.94Q76.05 12.08 76.05 10.39Q76.05 8.69 77.01 7.54Q77.97 6.38 79.56 6.38L79.56 6.38Q80.65 6.38 81.32 6.88Q81.98 7.38 81.98 8.42Q81.98 9.46 81.04 9.99Q80.09 10.51 78.74 10.51L78.74 10.51Q78.26 10.51 77.76 10.46ZM77.77 9.35L77.77 9.35Q78.19 9.44 78.65 9.44L78.65 9.44Q79.66 9.44 80.35 9.06L80.35 9.06Q80.43 8.72 80.43 8.53L80.43 8.53Q80.43 8.04 80.08 7.78Q79.73 7.53 79.12 7.53Q78.51 7.53 78.02 7.92L78.02 7.92Q77.77 8.65 77.77 9.35ZM85.36 13.47Q84.92 13.64 84.43 13.64Q83.94 13.64 83.64 13.41Q83.34 13.17 83.34 12.76Q83.34 12.35 83.47 11.26Q83.59 10.16 83.59 9.14Q83.59 8.11 83.27 6.72L83.27 6.72Q83.72 6.55 84.15 6.55Q84.59 6.55 84.90 6.85Q85.22 7.14 85.22 7.63L85.22 7.63Q85.22 7.88 85.13 8.38Q85.05 8.88 85.04 9.13L85.04 9.13Q85.58 7.88 86.33 7.18Q87.08 6.47 87.82 6.47L87.82 6.47Q88.34 6.47 88.65 6.83Q88.96 7.20 88.96 7.75Q88.96 8.30 88.68 8.64Q88.40 8.99 87.98 8.99Q87.57 8.99 87.32 8.90L87.32 8.90Q87.36 8.74 87.36 8.60L87.36 8.60Q87.36 8.02 86.95 8.02L86.95 8.02Q86.34 8.02 85.80 9.26Q85.26 10.50 85.08 11.58L85.08 11.58Q85.15 12.63 85.36 13.47L85.36 13.47ZM90.96 10.46L90.96 10.46Q90.96 11.47 91.28 12.05Q91.60 12.63 92.36 12.63Q93.11 12.63 93.54 12.12Q93.97 11.61 93.97 10.88L93.97 10.88Q94.44 10.88 94.79 11.12Q95.14 11.35 95.14 11.77L95.14 11.77Q95.14 12.64 94.22 13.22Q93.30 13.80 92.27 13.80L92.27 13.80Q90.68 13.80 89.96 12.94Q89.25 12.08 89.25 10.39Q89.25 8.69 90.21 7.54Q91.17 6.38 92.76 6.38L92.76 6.38Q93.86 6.38 94.52 6.88Q95.19 7.38 95.19 8.42Q95.19 9.46 94.24 9.99Q93.30 10.51 91.94 10.51L91.94 10.51Q91.46 10.51 90.96 10.46ZM90.97 9.35L90.97 9.35Q91.39 9.44 91.85 9.44L91.85 9.44Q92.86 9.44 93.55 9.06L93.55 9.06Q93.63 8.72 93.63 8.53L93.63 8.53Q93.63 8.04 93.28 7.78Q92.93 7.53 92.32 7.53Q91.71 7.53 91.22 7.92L91.22 7.92Q90.97 8.65 90.97 9.35Z"></path></g><defs data-v-fde0c5aa=""><!----></defs><g data-v-fde0c5aa="" id="fef5b8b0-bfcf-4a98-9e13-82f405b7b587" stroke="none" fill="#2f00bd" transform="matrix(0.8606199414451078,0,0,0.8606199414451078,106.96943300133901,83.607606988399)"><path d="M96.295 48.146h-7.408a3.702 3.702 0 110-7.404h7.408a3.704 3.704 0 013.704 3.701 3.703 3.703 0 01-3.704 3.703zM81.744 23.492a3.705 3.705 0 01-5.238 0 3.7 3.7 0 010-5.236l5.238-5.238a3.703 3.703 0 115.237 5.238l-5.237 5.236zM76.285 52.396a22.26 22.26 0 001.494-7.953c0-12.27-9.951-22.222-22.226-22.222-7.142 0-13.481 3.384-17.547 8.619a29.628 29.628 0 00-8.377-1.21C13.266 29.63 0 42.895 0 59.258c0 16.365 13.266 29.63 29.629 29.63h29.628c12.274 0 22.226-9.951 22.226-22.222a22.123 22.123 0 00-5.198-14.27zM55.553 29.63c8.183 0 14.817 6.634 14.817 14.813 0 .969-.102 1.912-.279 2.828a22.12 22.12 0 00-10.834-2.828c-1.289 0-2.535.17-3.766.38A29.833 29.833 0 0045.067 33.98a14.765 14.765 0 0110.486-4.35zm3.704 51.85h-29.63c-12.273 0-22.221-9.948-22.221-22.222s9.948-22.22 22.221-22.22c10.541 0 19.325 7.358 21.604 17.204 2.315-1.498 5.062-2.392 8.026-2.392 8.183 0 14.813 6.635 14.813 14.816.001 8.18-6.63 14.814-14.813 14.814zM55.553 14.813a3.704 3.704 0 01-3.704-3.702V3.704a3.705 3.705 0 017.408 0v7.407a3.7 3.7 0 01-3.704 3.702zM29.365 23.492l-5.236-5.236a3.703 3.703 0 115.236-5.238l5.237 5.238a3.703 3.703 0 01-5.237 5.236z"></path></g><!----></svg>